<svg width="128" height="128" xmlns="http://www.w3.org/2000/svg">

 <title/>
 <g>
  <title>background</title>
  <rect fill="none" id="canvas_background" height="402" width="582" y="-1" x="-1"/>
 </g>
 <g>
  <title>Layer 1</title>
  <circle fill="#005030" id="svg_1" r="60" cy="63.710152" cx="66.31" class="cls-1"/>
  <path fill="#ffffff" id="svg_2" d="m62,93.19a43.66,43.66 0 0 1 -8.3,-1a22.75,22.75 0 0 1 -5.56,-1.92l3.24,-9.44a19.4,19.4 0 0 0 4.19,1.66a33,33 0 0 0 6.43,1.09l0,-17q-2.6,-1.12 -5.13,-2.58a20.41,20.41 0 0 1 -4.52,-3.42a15.28,15.28 0 0 1 -3.2,-4.8a16.71,16.71 0 0 1 -1.2,-6.64q-0.01,-7.14 3.77,-11.14a18.16,18.16 0 0 1 10.28,-5.12l0,-7.6l8.69,0l0,7.27a32.72,32.72 0 0 1 6.38,1a38.35,38.35 0 0 1 5.06,1.75l-3,9.27a29.2,29.2 0 0 0 -3.57,-1.24a30.17,30.17 0 0 0 -4.89,-0.93l0,15.46q2.58,1.17 5.19,2.63a21.63,21.63 0 0 1 4.65,3.51a16.52,16.52 0 0 1 3.32,4.72a15,15 0 0 1 1.29,6.47q0,7.69 -3.86,12a18.2,18.2 0 0 1 -10.59,5.56l0,7.77l-8.67,0l0,-7.33zm-3.2,-44.85a5.23,5.23 0 0 0 1.9,4.12a21.37,21.37 0 0 0 4.86,3.05l0,-13.36q-4,0.16 -5.37,1.9a6.62,6.62 0 0 0 -1.39,4.29zm15.45,28a5.35,5.35 0 0 0 -2.06,-4.34a23.94,23.94 0 0 0 -5.11,-3.1l0,14.7a8.35,8.35 0 0 0 5.45,-2.31a7.07,7.07 0 0 0 1.73,-4.97l-0.01,0.02z" class="cls-2"/>
 </g>
</svg>