<?xml version="1.0" encoding="UTF-8" standalone="no"?>
<!-- Created with Inkscape (http://www.inkscape.org/) -->

<svg
   xmlns:dc="http://purl.org/dc/elements/1.1/"
   xmlns:cc="http://creativecommons.org/ns#"
   xmlns:rdf="http://www.w3.org/1999/02/22-rdf-syntax-ns#"
   xmlns:svg="http://www.w3.org/2000/svg"
   xmlns="http://www.w3.org/2000/svg"
   xmlns:sodipodi="http://sodipodi.sourceforge.net/DTD/sodipodi-0.dtd"
   xmlns:inkscape="http://www.inkscape.org/namespaces/inkscape"
   width="210mm"
   height="297mm"
   viewBox="0 0 210 297"
   version="1.1"
   id="svg898"
   inkscape:version="0.92.4 (5da689c313, 2019-01-14)"
   sodipodi:docname="tour-o-miami-logo-new.svg"
   inkscape:export-filename="C:\Users\ericpidal\1 bdm\Artwork\tour-o-miami-logo10.png"
   inkscape:export-xdpi="95.95903"
   inkscape:export-ydpi="95.95903">
  <defs
     id="defs892" />
  <sodipodi:namedview
     id="base"
     pagecolor="#ffffff"
     bordercolor="#666666"
     borderopacity="1.0"
     inkscape:pageopacity="0.0"
     inkscape:pageshadow="2"
     inkscape:zoom="2.1595529"
     inkscape:cx="366.17714"
     inkscape:cy="568.16543"
     inkscape:document-units="mm"
     inkscape:current-layer="layer1"
     showgrid="false"
     inkscape:window-width="1366"
     inkscape:window-height="705"
     inkscape:window-x="-8"
     inkscape:window-y="-8"
     inkscape:window-maximized="1" />
  <metadata
     id="metadata895">
    <rdf:RDF>
      <cc:Work
         rdf:about="">
        <dc:format>image/svg+xml</dc:format>
        <dc:type
           rdf:resource="http://purl.org/dc/dcmitype/StillImage" />
        <dc:title></dc:title>
      </cc:Work>
    </rdf:RDF>
  </metadata>
  <g
     inkscape:label="Layer 1"
     inkscape:groupmode="layer"
     id="layer1">
    <g
       id="g1791"
       transform="matrix(0.53313275,0,0,0.53313275,46.48622,61.408701)">
      <g
         transform="matrix(0.07539727,0,0,0.07539727,91.802418,121.73683)"
         id="g1597">
        <g
           style="fill:#d45500;fill-opacity:0.95686275"
           id="XMLID_5_"
           transform="matrix(0.26458333,0,0,0.26458333,8.5904066,62.186072)">
          <path
             style="fill:#d45500;fill-opacity:0.95686275"
             inkscape:connector-curvature="0"
             d="m 195.7,93.9 c -0.1,0 -0.2,0 -0.2,0 0,0 0,0 0,0 -0.7,0 -1.3,-0.2 -1.9,-0.4 -4.5,-2 -3.5,-7.9 -3.1,-10.8 0,-0.2 0.1,-0.4 0.1,-0.6 0.3,-2.6 1,-5 1.6,-7.3 1.9,-7.1 4,-14.2 6.1,-21.1 4.1,-13.6 8.3,-27.7 10.4,-41.8 0.1,-0.8 0.7,-3.7 3.1,-5.1 1.3,-0.8 2.9,-0.9 4.3,-0.3 1.8,0.7 2.6,2.3 2.9,2.9 6.2,12 12,24.5 17.2,37 2.9,6.9 5.6,14 8.2,21 1.3,3.5 2.5,7.1 3.7,10.6 0.1,0.2 0.2,0.4 0.3,0.6 0.3,0.8 0.7,1.8 0.9,2.9 0.2,1.4 -0.2,2.8 -1.2,3.8 -1.5,1.7 -3.7,1.6 -4.8,1.6 -0.1,0 -0.2,0 -0.3,0 -1.3,0.1 -2.7,0.2 -4,0.3 -12.7,0.9 -27.5,2.2 -41.2,6.3 -0.7,0.2 -1.3,0.4 -2.1,0.4 z m 19.6,-74.4 c -2.3,12.4 -6,24.6 -9.6,36.4 -2.1,6.8 -4.2,13.9 -6,20.8 -0.5,2.1 -1.1,4.3 -1.4,6.4 0,0.2 -0.1,0.5 -0.1,0.8 0,0.3 -0.1,0.8 -0.2,1.3 13.7,-3.8 28,-5 40.4,-5.9 0.6,0 1.2,-0.1 1.8,-0.1 -1.1,-3.1 -2.2,-6.2 -3.3,-9.2 -2.5,-6.9 -5.2,-13.9 -8.1,-20.7 -4.1,-10 -8.6,-20 -13.5,-29.8 z"
             id="XMLID_7742_" />
        </g>
        <g
           style="fill:#d45500;fill-opacity:0.95686275"
           id="XMLID_6_"
           transform="matrix(0.26458333,0,0,0.26458333,8.5904066,62.186072)">
          <path
             style="fill:#d45500;fill-opacity:0.95686275"
             inkscape:connector-curvature="0"
             d="m 316.1,98.2 c -1.3,0 -2.5,-0.5 -3.1,-0.9 -0.1,0 -0.2,-0.1 -0.3,-0.1 -1.2,-0.5 -2.5,-0.9 -3.8,-1.4 -12,-4.4 -26,-9.3 -40.2,-11.1 -0.5,-0.1 -1.3,-0.2 -2.2,-0.6 0,0 0,0 0,0 -0.6,-0.3 -1.1,-0.7 -1.5,-1.2 -3.2,-3.7 0,-8.7 1.6,-11.1 0.1,-0.2 0.2,-0.4 0.3,-0.5 1.4,-2.2 3,-4.2 4.4,-6.1 4.6,-5.7 9.5,-11.3 14.2,-16.8 9.3,-10.7 18.9,-21.8 26.6,-33.9 0.5,-0.7 2.2,-3.1 4.9,-3.4 1.5,-0.1 3,0.4 4,1.5 1.4,1.4 1.4,3.1 1.5,3.8 0.7,13.5 0.9,27.3 0.5,40.8 -0.2,7.5 -0.6,15.1 -1.1,22.5 -0.3,3.7 -0.6,7.5 -0.9,11.2 0,0.2 0,0.5 0,0.7 0,0.9 -0.1,1.9 -0.4,3 -0.4,1.4 -1.4,2.5 -2.6,3 -0.7,0.5 -1.3,0.6 -1.9,0.6 z M 272.4,77.3 c 14.1,2.2 27.6,6.9 39.2,11.2 0.6,0.2 1.1,0.4 1.7,0.6 0.3,-3.3 0.6,-6.5 0.8,-9.7 0.5,-7.4 0.9,-14.8 1.1,-22.2 0.3,-10.9 0.3,-21.9 -0.2,-32.8 -7.2,10.4 -15.5,20 -23.6,29.3 -4.7,5.4 -9.5,11 -14,16.6 -1.3,1.7 -2.7,3.4 -3.9,5.3 -0.1,0.2 -0.3,0.4 -0.4,0.7 -0.1,0 -0.4,0.5 -0.7,1 z"
             id="XMLID_7739_" />
        </g>
        <g
           style="fill:#d45500;fill-opacity:0.95686275"
           id="XMLID_7_"
           transform="matrix(0.26458333,0,0,0.26458333,8.5904066,62.186072)">
          <path
             style="fill:#d45500;fill-opacity:0.95686275"
             inkscape:connector-curvature="0"
             d="m 376.7,137.9 c 0,0 -0.1,0 0,0 -2.4,0 -3.8,-1.7 -4.4,-2.5 -0.1,-0.1 -0.1,-0.2 -0.2,-0.2 -0.9,-0.9 -1.9,-1.9 -2.9,-2.8 -9.1,-8.9 -19.9,-19.1 -32.1,-26.6 -0.4,-0.2 -1.1,-0.7 -1.8,-1.5 v 0 c -0.4,-0.5 -0.7,-1.1 -0.9,-1.7 -1.5,-4.7 3.6,-7.9 6,-9.5 0.2,-0.1 0.4,-0.2 0.5,-0.3 2.2,-1.5 4.4,-2.6 6.5,-3.7 6.5,-3.3 13.3,-6.5 19.8,-9.5 12.9,-6 26.2,-12.2 38.2,-20 0.7,-0.5 3.3,-1.9 5.9,-1.1 1.4,0.5 2.6,1.6 3.1,3 0.7,1.8 0,3.5 -0.2,4.1 -4.9,12.6 -10.4,25.2 -16.3,37.4 -3.3,6.7 -6.7,13.5 -10.3,20.1 -1.8,3.3 -3.6,6.6 -5.5,9.9 -0.1,0.2 -0.2,0.4 -0.3,0.6 -0.4,0.8 -0.8,1.7 -1.6,2.6 -0.9,1.1 -2.2,1.7 -3.5,1.7 z m -33.2,-37.5 c 11.9,7.8 22.3,17.6 31.2,26.3 0.4,0.4 0.9,0.8 1.3,1.3 1.6,-2.8 3.2,-5.7 4.7,-8.6 3.5,-6.5 6.9,-13.1 10.1,-19.8 4.7,-9.8 9.2,-19.8 13.3,-30 -10.8,6.5 -22.4,11.8 -33.5,17 -6.5,3 -13.2,6.1 -19.6,9.4 -1.9,1 -3.9,2 -5.7,3.2 -0.2,0.1 -0.4,0.3 -0.7,0.4 -0.2,0.2 -0.6,0.5 -1.1,0.8 z"
             id="XMLID_7736_" />
        </g>
        <g
           style="fill:#d45500;fill-opacity:0.95686275"
           id="XMLID_8_"
           transform="matrix(0.26458333,0,0,0.26458333,8.5904066,62.186072)">
          <path
             style="fill:#d45500;fill-opacity:0.95686275"
             inkscape:connector-curvature="0"
             d="m 415.7,198.9 c -0.7,0 -1.3,-0.1 -1.9,-0.4 -2.1,-1 -2.7,-3.1 -3,-4.1 0,-0.1 -0.1,-0.2 -0.1,-0.3 -0.5,-1.2 -1,-2.5 -1.5,-3.7 -4.7,-11.9 -10.3,-25.6 -18.4,-37.4 -0.3,-0.4 -0.8,-1.1 -1,-2.1 -0.2,-0.6 -0.2,-1.3 -0.1,-2 0.6,-4.8 6.5,-5.7 9.3,-6.1 0.2,0 0.4,-0.1 0.6,-0.1 2.6,-0.4 5.1,-0.6 7.5,-0.7 7.3,-0.4 14.8,-0.4 22,-0.5 14.2,-0.2 28.9,-0.3 43,-2.6 0.8,-0.1 3.8,-0.4 5.8,1.5 1.1,1 1.7,2.5 1.6,4 -0.2,2 -1.4,3.2 -1.9,3.7 -9.6,9.5 -19.8,18.8 -30.2,27.5 -5.7,4.8 -11.6,9.6 -17.6,14.1 -3,2.3 -6,4.6 -9,6.8 -0.2,0.1 -0.4,0.3 -0.5,0.4 -0.7,0.5 -1.5,1.2 -2.5,1.7 -0.7,0.1 -1.4,0.3 -2.1,0.3 z m -16.9,-48.2 c 7.7,12 13.2,25.2 17.7,36.7 0.2,0.6 0.4,1.1 0.7,1.7 2.6,-1.9 5.2,-3.9 7.8,-5.9 5.9,-4.5 11.7,-9.2 17.3,-13.9 8.3,-7 16.5,-14.3 24.4,-21.9 -12.6,1.5 -25.2,1.6 -37.6,1.8 -7.1,0.1 -14.5,0.2 -21.7,0.5 -2.1,0.1 -4.4,0.2 -6.5,0.6 -0.2,0 -0.5,0.1 -0.8,0.1 -0.2,0.1 -0.7,0.2 -1.3,0.3 z"
             id="XMLID_7733_" />
        </g>
        <g
           style="fill:#d45500;fill-opacity:0.95686275"
           id="XMLID_9_"
           transform="matrix(0.26458333,0,0,0.26458333,8.5904066,62.186072)">
          <path
             style="fill:#d45500;fill-opacity:0.95686275"
             inkscape:connector-curvature="0"
             d="m 426.4,270.5 c -1.4,0 -2.7,-0.6 -3.6,-1.6 -1.5,-1.7 -1.2,-3.9 -1,-4.9 0,-0.1 0,-0.2 0,-0.3 0.1,-1.3 0.1,-2.7 0.2,-4 0.6,-12.8 1.1,-27.6 -1.4,-41.7 -0.1,-0.5 -0.2,-1.3 -0.1,-2.3 0.1,-0.7 0.3,-1.3 0.7,-1.8 2.5,-4.2 8.3,-2.6 11,-1.8 0.2,0.1 0.4,0.1 0.6,0.2 2.5,0.7 4.9,1.6 7.1,2.4 6.8,2.7 13.7,5.7 20.3,8.5 13,5.7 26.5,11.5 40.3,15.3 0.8,0.2 3.6,1.1 4.7,3.7 0.6,1.4 0.5,3 -0.2,4.3 -0.9,1.7 -2.6,2.3 -3.2,2.6 -12.7,4.7 -25.7,9 -38.8,12.7 -7.2,2 -14.5,3.9 -21.8,5.7 -3.6,0.9 -7.3,1.7 -11,2.5 -0.2,0 -0.4,0.1 -0.7,0.2 -0.9,0 -1.9,0.3 -3.1,0.3 0,0 0,0 0,0 z m 2.3,-51.2 c 2.1,14.1 1.7,28.4 1.1,40.8 0,0.6 -0.1,1.2 -0.1,1.8 3.2,-0.7 6.4,-1.4 9.5,-2.2 7.2,-1.7 14.4,-3.6 21.5,-5.6 10.5,-3 20.9,-6.3 31.2,-10 -12.1,-3.8 -23.7,-8.8 -35,-13.8 -6.5,-2.8 -13.3,-5.8 -20,-8.4 -2,-0.8 -4.1,-1.6 -6.2,-2.1 -0.2,-0.1 -0.5,-0.1 -0.8,-0.2 -0.1,-0.1 -0.6,-0.2 -1.2,-0.3 z"
             id="XMLID_7730_" />
        </g>
        <g
           style="fill:#d45500;fill-opacity:0.95686275"
           id="XMLID_10_"
           transform="matrix(0.26458333,0,0,0.26458333,8.5904066,62.186072)">
          <path
             style="fill:#d45500;fill-opacity:0.95686275"
             inkscape:connector-curvature="0"
             d="m 483,351.1 c -0.3,0 -0.5,0 -0.6,0 -13.5,-0.9 -27.2,-2.3 -40.6,-4.3 -7.4,-1.1 -14.9,-2.4 -22.2,-3.8 -3.7,-0.7 -7.4,-1.5 -11.1,-2.3 -0.2,0 -0.4,-0.1 -0.7,-0.1 -0.8,-0.1 -1.9,-0.3 -2.9,-0.8 -1.3,-0.6 -2.3,-1.6 -2.7,-3 -0.7,-2.2 0.5,-4 1.1,-4.9 0.1,-0.1 0.1,-0.2 0.2,-0.3 0.6,-1.2 1.2,-2.4 1.8,-3.6 5.8,-11.4 12.3,-24.7 15.8,-38.6 0.1,-0.5 0.3,-1.3 0.9,-2.1 0.4,-0.6 0.8,-1 1.4,-1.4 4,-2.8 8.6,1.1 10.8,2.9 0.2,0.2 0.3,0.3 0.5,0.4 2,1.6 3.8,3.4 5.5,5.1 5.1,5.2 10.1,10.8 15,16.1 9.6,10.5 19.5,21.4 30.5,30.4 0.7,0.5 2.8,2.5 2.8,5.3 0,1.5 -0.7,2.9 -2,3.8 -1.4,1 -2.7,1.2 -3.5,1.2 z m -71.6,-17.8 c 3.2,0.7 6.4,1.3 9.6,1.9 7.2,1.4 14.6,2.6 21.9,3.7 10.8,1.6 21.7,2.8 32.6,3.7 -9.4,-8.4 -18,-17.8 -26.3,-26.9 -4.8,-5.3 -9.8,-10.7 -14.8,-15.9 -1.5,-1.5 -3.1,-3.1 -4.8,-4.5 -0.2,-0.1 -0.4,-0.3 -0.6,-0.5 -0.2,-0.2 -0.6,-0.5 -1.1,-0.9 -3.8,13.7 -10.1,26.6 -15.7,37.6 -0.3,0.7 -0.5,1.2 -0.8,1.8 z"
             id="XMLID_7727_" />
        </g>
        <g
           style="fill:#d45500;fill-opacity:0.95686275"
           id="XMLID_11_"
           transform="matrix(0.26458333,0,0,0.26458333,8.5904066,62.186072)">
          <path
             style="fill:#d45500;fill-opacity:0.95686275"
             inkscape:connector-curvature="0"
             d="m 425.8,437 c -1.4,0 -2.5,-0.6 -2.9,-0.8 -12,-6.3 -23.8,-13.3 -35.3,-20.6 -6.3,-4 -12.6,-8.3 -18.7,-12.6 -3.1,-2.2 -6.2,-4.4 -9.2,-6.6 -0.2,-0.1 -0.4,-0.3 -0.6,-0.4 -0.7,-0.5 -1.6,-1 -2.4,-1.9 -1,-1.1 -1.4,-2.4 -1.2,-3.8 0.3,-2.3 2.1,-3.5 3,-4 0.1,-0.1 0.2,-0.1 0.3,-0.2 1,-0.8 2.1,-1.7 3.1,-2.5 9.9,-8 21.3,-17.5 30.2,-28.7 0.4,-0.5 0.9,-1.1 1.7,-1.6 v 0 c 0.6,-0.4 1.2,-0.6 1.8,-0.7 4.8,-0.9 7.4,4.5 8.7,7.1 0.1,0.2 0.2,0.4 0.3,0.5 1.2,2.3 2.1,4.7 2.9,6.9 2.5,6.9 4.8,14 7.1,20.8 4.4,13.5 9,27.5 15.4,40.3 0.4,0.8 1.5,3.5 0.4,6 -0.6,1.4 -1.9,2.4 -3.4,2.7 -0.5,0.1 -0.9,0.1 -1.2,0.1 z m -60.4,-46.1 c 2.6,1.9 5.3,3.8 7.9,5.7 6,4.2 12.2,8.4 18.5,12.4 9.2,5.9 18.6,11.5 28.2,16.7 -5.2,-11.5 -9.1,-23.6 -13,-35.3 -2.2,-6.8 -4.5,-13.8 -7,-20.5 -0.7,-2 -1.5,-4.1 -2.5,-6 -0.1,-0.2 -0.2,-0.4 -0.3,-0.7 -0.1,-0.3 -0.3,-0.7 -0.6,-1.2 -9.1,10.9 -20.1,20.1 -29.8,27.9 -0.5,0.3 -1,0.7 -1.4,1 z"
             id="XMLID_7724_" />
        </g>
        <g
           style="fill:#d45500;fill-opacity:0.95686275"
           id="XMLID_12_"
           transform="matrix(0.26458333,0,0,0.26458333,8.5904066,62.186072)">
          <path
             style="fill:#d45500;fill-opacity:0.95686275"
             inkscape:connector-curvature="0"
             d="m 338,491.9 c -0.3,0 -0.7,0 -1,-0.1 -1.9,-0.4 -3,-1.8 -3.4,-2.3 -8.3,-10.7 -16.3,-21.9 -23.7,-33.2 -4.1,-6.3 -8.1,-12.7 -12,-19.1 -1.9,-3.2 -3.8,-6.5 -5.7,-9.8 -0.1,-0.2 -0.2,-0.4 -0.4,-0.6 -0.5,-0.7 -1,-1.6 -1.4,-2.7 -0.4,-1.4 -0.3,-2.8 0.4,-4 1.2,-2 3.3,-2.3 4.4,-2.5 0.1,0 0.2,0 0.3,-0.1 1.3,-0.3 2.6,-0.7 3.9,-1 12.4,-3.2 26.6,-7.2 39.3,-13.8 0.6,-0.3 1.3,-0.6 2.2,-0.8 0.7,-0.1 1.3,-0.1 1.9,0.1 4.8,1.2 4.9,7.1 5,10 0,0.2 0,0.4 0,0.6 0.1,2.6 0,5.1 -0.2,7.5 -0.5,7.3 -1.3,14.7 -2.1,21.9 -1.5,14.1 -3.1,28.7 -2.5,43 0,0.9 0,3.8 -2.1,5.6 -0.6,0.9 -1.7,1.3 -2.9,1.3 z m -38.2,-67.2 c 1.6,2.8 3.3,5.7 4.9,8.5 3.8,6.3 7.7,12.7 11.8,18.8 6,9.1 12.3,18.1 18.9,26.8 0,-12.6 1.3,-25.3 2.6,-37.5 0.8,-7.1 1.5,-14.4 2,-21.6 0.1,-2.1 0.3,-4.4 0.2,-6.5 0,-0.2 0,-0.5 0,-0.8 0,-0.3 0,-0.8 -0.1,-1.4 -12.8,6.2 -26.6,10.1 -38.6,13.3 -0.6,0.1 -1.1,0.2 -1.7,0.4 z"
             id="XMLID_7721_" />
        </g>
        <g
           style="fill:#d45500;fill-opacity:0.95686275"
           id="XMLID_13_"
           transform="matrix(0.26458333,0,0,0.26458333,8.5904066,62.186072)">
          <path
             style="fill:#d45500;fill-opacity:0.95686275"
             inkscape:connector-curvature="0"
             d="m 235.5,506 c -1,0 -2,-0.3 -2.9,-0.9 -1.6,-1.1 -2,-2.9 -2.2,-3.5 -3.2,-13.2 -5.9,-26.6 -8.1,-40 -1.2,-7.4 -2.2,-14.9 -3.1,-22.4 -0.4,-3.7 -0.8,-7.5 -1.2,-11.2 0,-0.2 -0.1,-0.5 -0.1,-0.7 -0.1,-0.8 -0.3,-1.9 -0.2,-3 0.2,-1.4 0.9,-2.7 2,-3.4 1.9,-1.3 4,-0.7 5,-0.5 0.1,0 0.2,0.1 0.3,0.1 1.3,0.2 2.6,0.4 3.9,0.7 12.6,2.1 27.2,4.3 41.6,3.5 0.7,0 1.5,0 2.3,0.2 0.6,0.2 1.2,0.5 1.7,0.9 3.9,3 1.6,8.5 0.5,11.2 -0.1,0.2 -0.2,0.4 -0.2,0.6 -0.9,2.4 -2.1,4.7 -3.2,6.8 -3.5,6.5 -7.2,12.9 -10.8,19.1 -7.2,12.3 -14.6,25 -19.9,38.2 -0.3,0.8 -1.6,3.4 -4.2,4.2 -0.3,0 -0.8,0.1 -1.2,0.1 z m -9.4,-77.4 c 0.3,3.2 0.6,6.5 1,9.7 0.8,7.3 1.9,14.7 3,22 1.7,10.8 3.8,21.5 6.2,32.2 5.2,-11.5 11.6,-22.5 17.8,-33.1 3.6,-6.2 7.3,-12.5 10.7,-18.9 1,-1.9 2.1,-3.9 2.8,-5.9 0.1,-0.2 0.2,-0.4 0.3,-0.7 0.1,-0.3 0.3,-0.7 0.5,-1.3 -14.2,0.5 -28.4,-1.7 -40.6,-3.7 -0.5,-0.1 -1.1,-0.2 -1.7,-0.3 z"
             id="XMLID_7718_" />
        </g>
        <g
           style="fill:#d45500;fill-opacity:0.95686275"
           id="XMLID_14_"
           transform="matrix(0.26458333,0,0,0.26458333,8.5904066,62.186072)">
          <path
             style="fill:#d45500;fill-opacity:0.95686275"
             inkscape:connector-curvature="0"
             d="m 136.2,476.8 c -0.2,0 -0.5,0 -0.7,0 -1.5,-0.2 -2.8,-1.1 -3.6,-2.4 -1,-1.7 -0.7,-3.4 -0.5,-4.1 2.5,-13.3 5.5,-26.7 9.1,-39.8 2,-7.2 4.1,-14.5 6.4,-21.6 1.1,-3.6 2.3,-7.2 3.5,-10.7 0.1,-0.2 0.1,-0.4 0.2,-0.7 0.2,-0.8 0.5,-1.8 1.1,-2.8 0.7,-1.2 1.9,-2.1 3.3,-2.3 2.3,-0.4 3.9,1 4.8,1.6 0.1,0.1 0.2,0.1 0.3,0.2 1.1,0.7 2.2,1.5 3.3,2.2 10.6,7.1 23.1,15.1 36.5,20.2 0.4,0.2 1.3,0.5 2,1.1 0.5,0.4 0.9,0.9 1.2,1.5 2.3,4.3 -2.1,8.4 -4.2,10.4 -0.2,0.2 -0.3,0.3 -0.4,0.4 -1.9,1.8 -3.8,3.4 -5.7,4.9 -5.8,4.5 -11.9,8.8 -17.7,13 -11.6,8.3 -23.5,16.8 -33.8,26.7 -0.8,0.6 -2.7,2.2 -5.1,2.2 z M 157.3,402 c -1,3.1 -2.1,6.2 -3.1,9.3 -2.2,7 -4.3,14.2 -6.3,21.3 -2.8,10.5 -5.4,21.2 -7.5,31.9 9.4,-8.4 19.8,-15.8 29.8,-22.9 5.8,-4.1 11.8,-8.4 17.5,-12.8 1.7,-1.3 3.5,-2.7 5,-4.2 0.2,-0.2 0.3,-0.3 0.6,-0.5 0.2,-0.2 0.6,-0.5 1,-0.9 -13.2,-5.4 -25.2,-13.1 -35.5,-20 -0.5,-0.6 -1,-0.9 -1.5,-1.2 z"
             id="XMLID_7715_" />
        </g>
        <g
           style="fill:#d45500;fill-opacity:0.95686275"
           id="XMLID_15_"
           transform="matrix(0.26458333,0,0,0.26458333,8.5904066,62.186072)">
          <path
             style="fill:#d45500;fill-opacity:0.95686275"
             inkscape:connector-curvature="0"
             d="m 58,409.7 c -1,0 -2.1,-0.2 -3.2,-0.8 -1.3,-0.8 -2.1,-2.1 -2.3,-3.6 -0.2,-1.9 0.8,-3.4 1.2,-3.9 7.7,-11.1 16,-22.1 24.6,-32.6 C 83,363 88,357.2 93,351.7 c 2.5,-2.8 5.1,-5.6 7.6,-8.3 0.1,-0.2 0.3,-0.3 0.5,-0.5 0.5,-0.7 1.2,-1.5 2.2,-2.1 1.2,-0.8 2.6,-1.1 3.9,-0.8 2.2,0.6 3.2,2.5 3.7,3.4 0.1,0.1 0.1,0.2 0.1,0.3 0.7,1.1 1.4,2.3 2.1,3.4 6.8,10.8 14.9,23.2 25,33.4 0.5,0.5 1,1.1 1.4,1.9 0.3,0.6 0.5,1.2 0.5,1.9 0.3,4.9 -5.3,6.8 -8,7.8 -0.2,0.1 -0.4,0.1 -0.6,0.2 -2.5,0.9 -4.9,1.5 -7.2,2.1 -7.1,1.7 -14.4,3.2 -21.5,4.6 -13.9,2.8 -28.3,5.7 -41.8,10.5 -0.5,-0.2 -1.6,0.2 -2.9,0.2 z m 47.5,-60.2 c -2.2,2.4 -4.4,4.8 -6.6,7.2 -4.9,5.5 -9.8,11.2 -14.4,16.9 -6.9,8.4 -13.6,17.2 -19.9,26 12.1,-3.8 24.5,-6.3 36.6,-8.7 7,-1.4 14.2,-2.9 21.2,-4.5 2.1,-0.5 4.3,-1 6.3,-1.8 0.2,-0.1 0.5,-0.2 0.7,-0.3 0.3,-0.1 0.8,-0.3 1.3,-0.5 -9.8,-10.3 -17.6,-22.3 -24.2,-32.8 -0.4,-0.5 -0.7,-1 -1,-1.5 z"
             id="XMLID_7712_" />
        </g>
        <g
           style="fill:#d45500;fill-opacity:0.95686275"
           id="XMLID_16_"
           transform="matrix(0.26458333,0,0,0.26458333,8.5904066,62.186072)">
          <path
             style="fill:#d45500;fill-opacity:0.95686275"
             inkscape:connector-curvature="0"
             d="m 91,193.1 c -3.5,0 -6.4,-3.5 -7.9,-5.3 -0.1,-0.2 -0.3,-0.3 -0.4,-0.5 -1.7,-2 -3.1,-4.1 -4.4,-6.1 -4.1,-6.1 -8,-12.4 -11.7,-18.6 C 59.1,150.5 51.4,138 42.3,127 c -0.6,-0.7 -2.3,-3 -1.7,-5.7 0.3,-1.5 1.3,-2.7 2.6,-3.4 1.8,-0.9 3.5,-0.4 4.1,-0.3 13.1,3.4 26.3,7.3 39.1,11.8 7.1,2.4 14.2,5.1 21.2,7.8 3.5,1.4 7,2.8 10.4,4.3 0.2,0.1 0.4,0.2 0.7,0.2 0.8,0.3 1.8,0.6 2.7,1.3 1.2,0.8 1.9,2 2.1,3.4 0.2,2.3 -1.2,3.9 -2,4.6 -0.1,0.1 -0.2,0.2 -0.2,0.2 -0.8,1 -1.6,2.1 -2.5,3.2 -7.8,10.1 -16.6,22 -22.7,35 -0.2,0.4 -0.6,1.2 -1.3,1.9 v 0 c -0.5,0.5 -1,0.9 -1.6,1.1 -0.8,0.6 -1.5,0.7 -2.2,0.7 z M 52.4,127.3 c 7.7,10 14.4,20.8 20.8,31.3 3.7,6.1 7.6,12.3 11.6,18.3 1.2,1.8 2.5,3.6 3.9,5.3 0.1,0.2 0.3,0.4 0.5,0.6 0.2,0.2 0.5,0.6 0.9,1 6.3,-12.8 14.8,-24.2 22.4,-34.1 0.4,-0.5 0.7,-1 1.1,-1.4 -3,-1.3 -6.1,-2.5 -9.1,-3.7 -6.9,-2.7 -13.9,-5.3 -20.8,-7.7 -10.3,-3.5 -20.8,-6.8 -31.3,-9.6 z"
             id="XMLID_8198_" />
        </g>
        <g
           style="fill:#d45500;fill-opacity:0.95686275"
           id="XMLID_17_"
           transform="matrix(0.26458333,0,0,0.26458333,8.5904066,62.186072)">
          <path
             style="fill:#d45500;fill-opacity:0.95686275"
             inkscape:connector-curvature="0"
             d="m 132.8,132.3 c -0.1,0 -0.1,0 0,0 -4.9,0 -6.5,-5.8 -7.2,-8.6 -0.1,-0.2 -0.1,-0.4 -0.2,-0.6 -0.7,-2.5 -1.2,-5 -1.6,-7.3 -1.2,-7.2 -2.2,-14.6 -3.1,-21.8 -1.8,-14.1 -3.7,-28.7 -7.6,-42.4 -0.2,-0.8 -0.9,-3.7 0.8,-5.9 0.9,-1.2 2.3,-2 3.8,-2 2,-0.1 3.3,1 3.9,1.4 10.6,8.5 21,17.5 30.8,26.8 5.5,5.1 10.9,10.4 16.1,15.8 2.6,2.7 5.2,5.4 7.8,8.2 0.1,0.2 0.3,0.3 0.5,0.5 0.6,0.6 1.4,1.3 2,2.3 0.8,1.2 0.9,2.7 0.5,4 -0.7,2.2 -2.7,3 -3.7,3.4 -0.1,0 -0.2,0.1 -0.3,0.1 -1.2,0.6 -2.4,1.2 -3.5,1.9 -11.3,6 -24.2,13.3 -35,22.6 -0.4,0.3 -1,0.9 -2,1.3 0,0 0,0 0,0 -0.8,0.2 -1.4,0.3 -2,0.3 z M 122.3,55.9 c 3,12.3 4.6,24.9 6.2,37.1 0.9,7.1 1.9,14.4 3.1,21.5 0.4,2.1 0.7,4.3 1.4,6.4 0.1,0.2 0.1,0.5 0.2,0.8 0.1,0.3 0.2,0.8 0.4,1.3 11,-9.1 23.5,-16 34.4,-21.9 0.5,-0.3 1.1,-0.6 1.6,-0.9 -2.2,-2.4 -4.5,-4.7 -6.8,-7.1 C 157.7,87.8 152.3,82.6 147,77.5 139,70.1 130.7,62.9 122.3,55.9 Z"
             id="XMLID_7745_" />
        </g>
        <g
           style="fill:#d45500;fill-opacity:0.95686275"
           id="XMLID_336_"
           transform="matrix(0.26458333,0,0,0.26458333,8.5904066,62.186072)">
          <path
             style="fill:#d45500;fill-opacity:0.95686275"
             inkscape:connector-curvature="0"
             d="m 89.4,329.9 c -1.1,0 -2.1,-0.1 -2.9,-0.2 -0.2,0 -0.4,0 -0.6,-0.1 -2.6,-0.2 -5.1,-0.6 -7.4,-1.1 -7.2,-1.4 -14.5,-3 -21.5,-4.6 -13.9,-3.2 -28.2,-6.4 -42.4,-7.5 -0.9,-0.1 -3.8,-0.5 -5.3,-2.8 -0.8,-1.3 -1.1,-2.8 -0.6,-4.3 0.6,-1.9 2.1,-2.8 2.7,-3.1 11.6,-7 23.6,-13.6 35.8,-19.7 6.7,-3.3 13.6,-6.6 20.4,-9.6 3.4,-1.5 6.9,-3 10.4,-4.5 0.2,-0.1 0.4,-0.2 0.6,-0.3 0.8,-0.4 1.7,-0.8 2.8,-1.1 1.4,-0.3 2.8,0 3.9,0.9 1.8,1.4 1.9,3.6 1.9,4.6 0,0.1 0,0.2 0,0.3 0.2,1.3 0.4,2.6 0.5,4 1.8,12.7 4.1,27.3 9.1,40.7 0.2,0.4 0.5,1.3 0.5,2.3 0,0 0,0 0,0 0,0.7 -0.1,1.3 -0.3,1.9 -1.2,3.6 -4.7,4.2 -7.6,4.2 z M 21.8,309.3 c 12.6,1.5 24.9,4.3 36.9,7 7,1.6 14.1,3.2 21.2,4.6 2.1,0.4 4.3,0.8 6.5,0.9 0.2,0 0.5,0 0.8,0.1 0.3,0 0.8,0.1 1.4,0.1 -4.7,-13.4 -6.9,-27.6 -8.6,-39.9 -0.1,-0.6 -0.2,-1.2 -0.2,-1.8 -3,1.3 -6,2.6 -9,3.9 -6.7,3 -13.5,6.2 -20.1,9.5 -9.8,4.9 -19.5,10.1 -28.9,15.6 z"
             id="XMLID_7709_" />
        </g>
        <g
           style="fill:#d45500;fill-opacity:0.95686275"
           id="XMLID_337_"
           transform="matrix(0.26458333,0,0,0.26458333,8.5904066,62.186072)">
          <path
             style="fill:#d45500;fill-opacity:0.95686275"
             inkscape:connector-curvature="0"
             d="m 77.6,257.1 c -2.7,0 -5.5,-1.6 -7.1,-2.5 -0.2,-0.1 -0.4,-0.2 -0.5,-0.3 -2.3,-1.2 -4.4,-2.7 -6.3,-4 -6,-4.2 -12,-8.7 -17.7,-13 -11.4,-8.6 -23.1,-17.4 -35.6,-24.2 -0.8,-0.4 -3.2,-2 -3.7,-4.7 -0.3,-1.5 0.2,-3 1.2,-4.1 1.3,-1.5 3.1,-1.7 3.7,-1.7 13.5,-1.6 27.1,-2.7 40.7,-3.3 7.5,-0.3 15.1,-0.4 22.6,-0.4 3.8,0 7.5,0.1 11.3,0.2 0.2,0 0.5,0 0.7,0 0.9,0 1.9,-0.1 3,0.2 1.4,0.3 2.5,1.2 3.2,2.4 1.1,2 0.3,4.1 -0.1,5 0,0.1 -0.1,0.2 -0.1,0.3 -0.4,1.3 -0.8,2.6 -1.1,3.8 -3.6,12.3 -7.5,26.6 -8.4,40.9 0,0.5 -0.1,1.3 -0.5,2.3 -0.3,0.6 -0.6,1.2 -1.1,1.6 -1.4,1.1 -2.8,1.5 -4.2,1.5 z M 19.8,209.5 c 10.8,6.5 21,14.1 30.8,21.6 5.7,4.3 11.6,8.7 17.5,12.9 1.7,1.2 3.6,2.5 5.5,3.5 0.2,0.1 0.4,0.2 0.7,0.4 0.2,0.1 0.7,0.4 1.2,0.6 1.2,-14.2 5,-28 8.5,-39.9 0.2,-0.6 0.3,-1.2 0.5,-1.7 -3.2,-0.1 -6.5,-0.1 -9.8,-0.1 -7.4,0 -14.8,0.1 -22.2,0.4 -10.9,0.3 -21.9,1.1 -32.7,2.3 z"
             id="XMLID_7706_" />
        </g>
      </g>
      <ellipse
         ry="2.7698376"
         rx="2.9140899"
         cy="131.58517"
         cx="97.55909"
         id="path1524"
         style="opacity:1;fill:#ffffff;fill-opacity:0.95686275;stroke:#005030;stroke-width:0.38456282;stroke-miterlimit:4;stroke-dasharray:none;stroke-opacity:0.96482412" />
      <text
         id="text1601"
         y="134.08057"
         x="71.416718"
         style="font-style:normal;font-variant:normal;font-weight:normal;font-stretch:normal;font-size:7.54320717px;line-height:1.25;font-family:serif;-inkscape-font-specification:serif;letter-spacing:0px;word-spacing:0px;fill:#005030;fill-opacity:0.91457286;stroke:none;stroke-width:0.14143512"
         xml:space="preserve"><tspan
           style="font-style:normal;font-variant:normal;font-weight:normal;font-stretch:normal;font-family:serif;-inkscape-font-specification:serif;fill:#005030;fill-opacity:0.91457286;stroke-width:0.14143512"
           y="134.08057"
           x="71.416718"
           id="tspan1599"
           sodipodi:role="line">TOUR</tspan></text>
      <text
         xml:space="preserve"
         style="font-style:normal;font-variant:normal;font-weight:normal;font-stretch:normal;font-size:7.54320717px;line-height:1.25;font-family:Arial;-inkscape-font-specification:Arial;letter-spacing:0px;word-spacing:0px;fill:#005030;fill-opacity:0.91457286;stroke:none;stroke-width:0.14143512"
         x="103.79087"
         y="134.13948"
         id="text1605"><tspan
           sodipodi:role="line"
           id="tspan1603"
           x="103.79087"
           y="134.13948"
           style="font-style:normal;font-variant:normal;font-weight:normal;font-stretch:normal;font-family:SERIF;-inkscape-font-specification:SERIF;fill:#005030;fill-opacity:0.91457286;stroke-width:0.14143512">MIAMI</tspan></text>
    </g>
  </g>
</svg>
